<?xml version="1.0" encoding="utf-8"?>
<!-- Generator: Adobe Illustrator 16.0.0, SVG Export Plug-In . SVG Version: 6.00 Build 0)  -->
<!DOCTYPE svg PUBLIC "-//W3C//DTD SVG 1.1//EN" "http://www.w3.org/Graphics/SVG/1.1/DTD/svg11.dtd">
<svg version="1.1" id="Capa_1" xmlns="http://www.w3.org/2000/svg" xmlns:xlink="http://www.w3.org/1999/xlink" x="0px" y="0px"
	 width="139.333px" height="139.333px" viewBox="0 0 139.333 139.333" enable-background="new 0 0 139.333 139.333"
	 xml:space="preserve">
<g>
	<polygon fill="#FFFFFF" points="60.666,83.167 84.049,69.667 60.666,56.167 	"/>
	<path fill="#FFFFFF" d="M69.666,2.167c-37.279,0-67.5,30.221-67.5,67.5s30.221,67.5,67.5,67.5s67.5-30.221,67.5-67.5
		S106.945,2.167,69.666,2.167z M112.785,91.329c-1.035,3.873-4.084,6.922-7.957,7.957c-7.018,1.881-35.162,1.881-35.162,1.881
		s-28.143,0-35.162-1.881c-3.873-1.035-6.922-4.084-7.957-7.957c-1.881-7.019-1.881-21.662-1.881-21.662s0-14.645,1.881-21.662
		c1.035-3.873,4.084-6.922,7.957-7.957c7.02-1.881,35.162-1.881,35.162-1.881s28.145,0,35.162,1.881
		c3.873,1.035,6.922,4.084,7.957,7.957c1.881,7.018,1.881,21.662,1.881,21.662S114.666,84.31,112.785,91.329z"/>
</g>
</svg>
