<?xml version="1.0" encoding="utf-8"?>
<!-- Generator: Adobe Illustrator 16.0.0, SVG Export Plug-In . SVG Version: 6.00 Build 0)  -->
<!DOCTYPE svg PUBLIC "-//W3C//DTD SVG 1.1//EN" "http://www.w3.org/Graphics/SVG/1.1/DTD/svg11.dtd">
<svg version="1.1" id="Capa_1" xmlns="http://www.w3.org/2000/svg" xmlns:xlink="http://www.w3.org/1999/xlink" x="0px" y="0px"
	 width="139.333px" height="139.333px" viewBox="0 0 139.333 139.333" enable-background="new 0 0 139.333 139.333"
	 xml:space="preserve">
<path fill="#FFFFFF" d="M69.666,2.167c-37.278,0-67.499,30.221-67.499,67.498c0,33.691,24.684,61.617,56.952,66.68V89.177H41.98
	V69.666h17.139v-14.87c0-16.917,10.078-26.261,25.496-26.261c7.387,0,15.111,1.318,15.111,1.318v16.611h-8.512
	c-8.387,0-11.002,5.203-11.002,10.542v12.66h18.723l-2.992,19.512h-15.73v47.168c32.271-5.063,56.955-32.988,56.955-66.68
	C137.168,32.388,106.947,2.167,69.666,2.167z"/>
</svg>
