<?xml version="1.0" encoding="utf-8"?>
<!-- Generator: Adobe Illustrator 16.0.0, SVG Export Plug-In . SVG Version: 6.00 Build 0)  -->
<!DOCTYPE svg PUBLIC "-//W3C//DTD SVG 1.1//EN" "http://www.w3.org/Graphics/SVG/1.1/DTD/svg11.dtd">
<svg version="1.1" id="Capa_1" xmlns="http://www.w3.org/2000/svg" xmlns:xlink="http://www.w3.org/1999/xlink" x="0px" y="0px"
	 width="139.333px" height="139.333px" viewBox="0 0 139.333 139.333" enable-background="new 0 0 139.333 139.333"
	 xml:space="preserve">
<path fill="#FFFFFF" d="M69.666,2.167c-37.279,0-67.5,30.221-67.5,67.5s30.221,67.5,67.5,67.5s67.5-30.221,67.5-67.5
	S106.945,2.167,69.666,2.167z M47.387,106.548c-4.801-0.053-9.604-0.04-14.404-0.007c-0.77,0.006-1.002-0.188-1-0.982
	c0.021-17.111,0.02-34.224,0.004-51.336c-0.002-0.707,0.17-0.961,0.922-0.955c4.871,0.031,9.744,0.041,14.615-0.006
	c0.936-0.01,1.063,0.354,1.061,1.156c-0.023,8.521-0.014,17.041-0.014,25.563c0,8.451-0.016,16.903,0.02,25.355
	C48.594,106.276,48.359,106.559,47.387,106.548z M40.299,45.941c-5.227,0.002-9.57-4.325-9.588-9.548
	c-0.018-5.282,4.324-9.631,9.607-9.626c5.246,0.005,9.57,4.313,9.576,9.543C49.898,41.616,45.592,45.939,40.299,45.941z
	 M110.701,105.449c0.002,0.873-0.242,1.103-1.104,1.095c-4.803-0.039-9.607-0.041-14.41,0.002c-0.846,0.007-1.027-0.255-1.025-1.054
	c0.027-8.872,0.033-17.745,0.006-26.617c-0.008-2.224-0.15-4.445-0.773-6.607c-1.148-3.982-4-6.011-8.172-5.79
	c-5.695,0.301-8.658,3.121-9.385,8.914c-0.174,1.383-0.256,2.768-0.254,4.161c0.008,8.628-0.01,17.258,0.023,25.886
	c0.002,0.861-0.213,1.115-1.092,1.107c-4.838-0.043-9.678-0.038-14.516-0.004c-0.775,0.006-1-0.203-1-0.988
	c0.021-17.084,0.023-34.168,0-51.251c-0.002-0.845,0.275-1.041,1.074-1.035c4.596,0.034,9.191,0.038,13.785-0.003
	c0.846-0.008,1.064,0.266,1.045,1.066c-0.047,2.041-0.016,4.084-0.016,6.127c1.109-1.246,2.023-2.511,3.162-3.584
	c3.5-3.299,7.641-4.963,12.475-4.922c2.656,0.021,5.283,0.214,7.846,0.955c5.857,1.693,9.264,5.727,10.887,11.449
	c1.217,4.293,1.441,8.699,1.449,13.119C110.723,86.799,110.68,96.125,110.701,105.449z"/>
</svg>
