<?xml version="1.0" encoding="utf-8"?>
<!-- Generator: Adobe Illustrator 16.0.0, SVG Export Plug-In . SVG Version: 6.00 Build 0)  -->
<!DOCTYPE svg PUBLIC "-//W3C//DTD SVG 1.1//EN" "http://www.w3.org/Graphics/SVG/1.1/DTD/svg11.dtd">
<svg version="1.1" id="Capa_1" xmlns="http://www.w3.org/2000/svg" xmlns:xlink="http://www.w3.org/1999/xlink" x="0px" y="0px"
	 width="139.333px" height="139.333px" viewBox="0 0 139.333 139.333" enable-background="new 0 0 139.333 139.333"
	 xml:space="preserve">
<g>
	<path fill="#FFFFFF" d="M102.797,44.601c-0.771-1.983-1.691-3.399-3.179-4.887c-1.487-1.486-2.903-2.408-4.887-3.18
		c-1.498-0.581-3.748-1.273-7.892-1.463c-4.481-0.204-5.826-0.248-17.174-0.248s-12.692,0.044-17.174,0.248
		c-4.144,0.189-6.395,0.882-7.892,1.463c-1.983,0.771-3.399,1.693-4.887,3.18c-1.487,1.487-2.408,2.903-3.179,4.887
		c-0.582,1.498-1.274,3.748-1.464,7.893c-0.204,4.48-0.247,5.824-0.247,17.173s0.043,12.692,0.247,17.174
		c0.189,4.144,0.882,6.394,1.464,7.892c0.771,1.984,1.691,3.399,3.179,4.887s2.903,2.408,4.887,3.18
		c1.497,0.582,3.748,1.273,7.892,1.463c4.48,0.205,5.825,0.248,17.174,0.248s12.692-0.043,17.174-0.248
		c4.144-0.189,6.394-0.881,7.892-1.463c1.983-0.771,3.399-1.692,4.887-3.18s2.408-2.902,3.179-4.887
		c0.582-1.498,1.274-3.748,1.464-7.892c0.204-4.481,0.247-5.825,0.247-17.174s-0.043-12.692-0.247-17.174
		C104.072,48.349,103.379,46.099,102.797,44.601z M69.667,91.491c-12.053,0-21.824-9.771-21.824-21.824s9.771-21.824,21.824-21.824
		s21.824,9.771,21.824,21.824S81.719,91.491,69.667,91.491z M92.353,52.08c-2.816,0-5.1-2.283-5.1-5.1s2.283-5.1,5.1-5.1
		s5.1,2.283,5.1,5.1S95.169,52.08,92.353,52.08z"/>
	<circle fill="#FFFFFF" cx="69.667" cy="69.667" r="14.167"/>
	<path fill="#FFFFFF" d="M69.667,2.167c-37.279,0-67.5,30.221-67.5,67.5s30.221,67.5,67.5,67.5s67.5-30.221,67.5-67.5
		S106.946,2.167,69.667,2.167z M111.911,87.189c-0.206,4.523-0.925,7.613-1.976,10.316c-1.086,2.795-2.539,5.165-4.901,7.527
		c-2.363,2.363-4.733,3.816-7.528,4.902c-2.703,1.051-5.792,1.77-10.316,1.977c-4.533,0.206-5.98,0.255-17.522,0.255
		c-11.543,0-12.99-0.049-17.522-0.255c-4.524-0.207-7.613-0.926-10.317-1.977c-2.794-1.086-5.164-2.539-7.527-4.902
		c-2.362-2.362-3.815-4.732-4.901-7.527c-1.051-2.703-1.77-5.793-1.976-10.316c-0.207-4.533-0.256-5.98-0.256-17.522
		s0.049-12.989,0.256-17.522c0.206-4.523,0.925-7.613,1.976-10.316c1.086-2.795,2.539-5.165,4.901-7.527
		c2.363-2.363,4.733-3.816,7.527-4.902c2.704-1.051,5.793-1.77,10.317-1.976c4.532-0.207,5.979-0.256,17.522-0.256
		c11.542,0,12.989,0.049,17.522,0.256c4.524,0.206,7.613,0.925,10.316,1.976c2.795,1.086,5.165,2.539,7.528,4.902
		c2.362,2.362,3.815,4.732,4.901,7.527c1.051,2.703,1.77,5.793,1.976,10.316c0.207,4.533,0.256,5.98,0.256,17.522
		S112.118,82.656,111.911,87.189z"/>
</g>
</svg>
